<svg width="74" height="74" viewBox="0 0 64 60" fill="none" xmlns="http://www.w3.org/2000/svg">
<g filter="url(#filter0_d_36_229)">
<path d="M15.8626 22.5455C17.4551 15.7562 22.7562 10.4551 29.5455 8.86259C34.4486 7.71247 39.5514 7.71247 44.4545 8.86259C51.2438 10.4551 56.5449 15.7562 58.1374 22.5455C59.2875 27.4486 59.2875 32.5514 58.1374 37.4545C56.5449 44.2438 51.2438 49.5449 44.4545 51.1374C39.5514 52.2875 34.4486 52.2875 29.5455 51.1374C22.7562 49.5449 17.4551 44.2438 15.8626 37.4545C14.7125 32.5514 14.7125 27.4486 15.8626 22.5455Z" fill="#24BEEF"/>
</g>
<rect x="27.5" y="23.8387" width="19" height="14.7097" rx="5.04744" fill="white"/>
<path d="M27.5 26.0379C27.5 23.8078 29.3079 22 31.538 22H41.4165C42.5316 22 43.4355 22.9039 43.4355 24.019V25.4611C43.4355 27.2731 41.9666 28.7419 40.1546 28.7419H27.5V26.0379Z" fill="white"/>
<path d="M44.481 24.4516H33.629" stroke="#24BEEF" stroke-width="1.22581" stroke-linecap="round"/>
<path d="M41.8183 31.1936V29.7462" stroke="#24BEEF" stroke-width="1.24057" stroke-linecap="round"/>
<circle cx="41.8181" cy="29.7462" r="1.00427" fill="#24BEEF"/>
<defs>
<filter id="filter0_d_36_229" x="0.375" y="0.6875" width="73.25" height="73.25" filterUnits="userSpaceOnUse" color-interpolation-filters="sRGB">
<feFlood flood-opacity="0" result="BackgroundImageFix"/>
<feColorMatrix in="SourceAlpha" type="matrix" values="0 0 0 0 0 0 0 0 0 0 0 0 0 0 0 0 0 0 127 0" result="hardAlpha"/>
<feOffset dy="7.3125"/>
<feGaussianBlur stdDeviation="7.3125"/>
<feColorMatrix type="matrix" values="0 0 0 0 0 0 0 0 0 0 0 0 0 0 0 0 0 0 0.08 0"/>
<feBlend mode="normal" in2="BackgroundImageFix" result="effect1_dropShadow_36_229"/>
<feBlend mode="normal" in="SourceGraphic" in2="effect1_dropShadow_36_229" result="shape"/>
</filter>
</defs>
</svg>
