<svg width="74" height="74" viewBox="0 0 64 60" fill="none" xmlns="http://www.w3.org/2000/svg">
<g filter="url(#filter0_d_36_208)">
<path d="M15.8626 22.5455C17.4551 15.7562 22.7562 10.4551 29.5455 8.86259C34.4486 7.71247 39.5514 7.71247 44.4545 8.86259C51.2438 10.4551 56.5449 15.7562 58.1374 22.5455C59.2875 27.4486 59.2875 32.5514 58.1374 37.4545C56.5449 44.2438 51.2438 49.5449 44.4545 51.1374C39.5514 52.2875 34.4486 52.2875 29.5455 51.1374C22.7562 49.5449 17.4551 44.2438 15.8626 37.4545C14.7125 32.5514 14.7125 27.4486 15.8626 22.5455Z" fill="#0F0303"/>
</g>
<path d="M39.6147 18.7879L39.6032 24.0006L39.5917 29.2134L39.062 28.0033V28.0002L38.3749 39.6048C39.0505 41.1438 39.4113 41.9661 39.4151 41.9692C39.419 41.9723 39.8028 41.9909 40.2672 42.0095C41.6721 42.0654 43.4147 42.1864 44.7389 42.3198C45.046 42.3508 45.307 42.3663 45.3262 42.3539C45.3453 42.3415 45.3492 37.0357 45.3453 30.56L45.3338 18.7879H39.6147V18.7879Z" fill="url(#paint0_linear_36_208)"/>
<path d="M29.2691 18.7723V30.5569C29.2691 37.0387 29.2768 42.3477 29.2883 42.357C29.2998 42.3663 29.7949 42.326 30.3937 42.2732C30.9925 42.2205 31.8177 42.1522 32.2284 42.1243C32.8579 42.0808 34.7464 41.9847 34.9613 41.9815C35.0266 41.9815 35.0304 41.7178 35.0381 36.9891L35.0496 31.9966L35.5064 33.0392C35.5755 33.2005 35.5985 33.2502 35.6676 33.4084L36.3546 21.8069C36.2088 21.4749 36.2856 21.6486 36.1205 21.2701C35.5601 19.9886 35.0842 18.9057 35.065 18.8561L35.0266 18.7692H29.2691V18.7723Z" fill="url(#paint1_linear_36_208)"/>
<path d="M29.2691 18.7723L35.0458 32.0058V31.9996L35.5026 33.0422C38.0397 38.8476 39.4023 41.9628 39.41 41.969C39.4139 41.9721 39.7977 41.9907 40.2621 42.0093C41.667 42.0652 43.4096 42.1862 44.7338 42.3196C45.037 42.3506 45.3019 42.3662 45.3172 42.3537L39.5904 29.2102V29.2133L39.0607 28.0032C38.5425 26.821 38.1971 26.0298 36.1129 21.2701C35.5525 19.9886 35.0765 18.9057 35.0573 18.8561L35.0189 18.7692H32.144L29.2691 18.7723Z" fill="#E30A17"/>
<defs>
<filter id="filter0_d_36_208" x="0.375" y="0.6875" width="73.25" height="73.25" filterUnits="userSpaceOnUse" color-interpolation-filters="sRGB">
<feFlood flood-opacity="0" result="BackgroundImageFix"/>
<feColorMatrix in="SourceAlpha" type="matrix" values="0 0 0 0 0 0 0 0 0 0 0 0 0 0 0 0 0 0 127 0" result="hardAlpha"/>
<feOffset dy="7.3125"/>
<feGaussianBlur stdDeviation="7.3125"/>
<feColorMatrix type="matrix" values="0 0 0 0 0 0 0 0 0 0 0 0 0 0 0 0 0 0 0.08 0"/>
<feBlend mode="normal" in2="BackgroundImageFix" result="effect1_dropShadow_36_208"/>
<feBlend mode="normal" in="SourceGraphic" in2="effect1_dropShadow_36_208" result="shape"/>
</filter>
<linearGradient id="paint0_linear_36_208" x1="47.9248" y1="36.4114" x2="38.9641" y2="40.6005" gradientUnits="userSpaceOnUse">
<stop stop-color="#B20610"/>
<stop offset="0.255959" stop-color="#B20610"/>
<stop offset="1" stop-color="#590004"/>
</linearGradient>
<linearGradient id="paint1_linear_36_208" x1="26.4933" y1="23.9397" x2="36.1879" y2="19.4598" gradientUnits="userSpaceOnUse">
<stop stop-color="#B20610"/>
<stop offset="0.255959" stop-color="#B20610"/>
<stop offset="1" stop-color="#590004"/>
</linearGradient>
</defs>
</svg>
