<svg width="200" height="200" viewBox="0 0 64 60" fill="none" xmlns="http://www.w3.org/2000/svg">
<g filter="url(#filter0_d_36_216)">
<path d="M15.8626 22.5455C17.4551 15.7562 22.7562 10.4551 29.5455 8.86259C34.4486 7.71247 39.5514 7.71247 44.4545 8.86259C51.2438 10.4551 56.5449 15.7562 58.1374 22.5455C59.2875 27.4486 59.2875 32.5514 58.1374 37.4545C56.5449 44.2438 51.2438 49.5449 44.4545 51.1374C39.5514 52.2875 34.4486 52.2875 29.5455 51.1374C22.7562 49.5449 17.4551 44.2438 15.8626 37.4545C14.7125 32.5514 14.7125 27.4486 15.8626 22.5455Z" fill="#4368C7"/>
</g>
<path fill-rule="evenodd" clip-rule="evenodd" d="M33.536 30.7377L33.0465 36.6983C33.0099 37.145 32.618 37.4774 32.1714 37.4407L29.7451 37.2415C29.2985 37.2048 28.9661 36.813 29.0028 36.3663L30.1981 21.8088C30.2342 21.3691 30.6143 21.0403 31.0521 21.0649C31.1499 21.0231 31.2576 21 31.3708 21H38.2683C40.7332 21 42.7314 22.9982 42.7314 25.4631V26.2746C42.7314 28.7395 40.7332 30.7377 38.2683 30.7377H33.536Z" fill="white"/>
<path fill-rule="evenodd" clip-rule="evenodd" d="M37.5295 33.9836L37.0401 39.9443C37.0035 40.3909 36.6116 40.7233 36.165 40.6866L33.7387 40.4874C33.292 40.4507 32.9597 40.0589 32.9964 39.6122L34.1917 25.0547C34.2283 24.608 34.6202 24.2756 35.0668 24.3123L35.0999 24.315C35.2003 24.2706 35.3113 24.2459 35.4281 24.2459H40.7027C43.1676 24.2459 45.1658 26.2441 45.1658 28.709V29.5205C45.1658 31.9854 43.1676 33.9836 40.7027 33.9836H37.5295Z" fill="#68BFF0" fill-opacity="0.7"/>
<defs>
<filter id="filter0_d_36_216" x="0.375" y="0.6875" width="73.25" height="73.25" filterUnits="userSpaceOnUse" color-interpolation-filters="sRGB">
<feFlood flood-opacity="0" result="BackgroundImageFix"/>
<feColorMatrix in="SourceAlpha" type="matrix" values="0 0 0 0 0 0 0 0 0 0 0 0 0 0 0 0 0 0 127 0" result="hardAlpha"/>
<feOffset dy="7.3125"/>
<feGaussianBlur stdDeviation="7.3125"/>
<feColorMatrix type="matrix" values="0 0 0 0 0 0 0 0 0 0 0 0 0 0 0 0 0 0 0.08 0"/>
<feBlend mode="normal" in2="BackgroundImageFix" result="effect1_dropShadow_36_216"/>
<feBlend mode="normal" in="SourceGraphic" in2="effect1_dropShadow_36_216" result="shape"/>
</filter>
</defs>
</svg>
